<svg width="31" height="31" viewBox="0 0 31 31" fill="none" xmlns="http://www.w3.org/2000/svg">
<path fill-rule="evenodd" clip-rule="evenodd" d="M8.00239 15.3959C8.00239 14.8276 8.26053 14.311 8.62193 13.8977C7.95076 12.7611 7.02145 11.9344 5.52423 11.8311H2.63304H0.464655C0.30977 12.2961 0.30977 12.4511 0.206513 13.0194C0.0516283 13.7944 0 14.5693 0 15.3959C0 16.2226 0.0516283 16.9975 0.206513 17.8242C0.30977 18.3925 0.361398 18.5475 0.464655 19.0124H2.63304H5.57586C7.02145 18.9091 7.95076 18.0308 8.67356 16.9459C8.26053 16.5326 8.00239 15.9643 8.00239 15.3959ZM30.7705 15.3959C30.7705 12.6061 29.9444 9.86787 28.6537 7.59465C21.8904 5.01143 13.4234 7.54298 11.7196 14.0527C12.0294 14.4143 12.1843 14.8793 12.1843 15.3959C12.1843 15.9126 11.9778 16.3776 11.7196 16.7392C13.4234 23.3006 21.942 25.8321 28.6537 23.1973C29.9961 20.924 30.7705 18.1858 30.7705 15.3959ZM15.3852 30.7919C9.03496 30.7919 3.04607 26.7104 0.980938 20.6657H2.63304H5.98889C8.20891 20.6657 9.2931 19.2191 10.0675 17.5142H10.1192H10.1708C10.2224 17.8242 10.3773 18.1858 10.5322 18.4958C13.8364 25.7288 21.529 26.5038 27.4146 25.1088C24.0588 28.9836 20.6513 30.5852 15.3852 30.7919ZM15.3852 0C20.6513 0.258321 24.0588 1.85991 27.363 5.73473C21.4774 4.28813 13.7848 5.11476 10.4806 12.3478C10.3773 12.6061 10.1708 13.0194 10.1192 13.3294H10.0675H10.0159C9.24147 11.5728 8.15728 10.1779 5.93726 10.1779H2.63304H0.980938C3.04607 4.08148 9.03496 0 15.3852 0Z" fill="white"/>
</svg>
