<svg width="374" height="356" viewBox="0 0 374 356" fill="none" xmlns="http://www.w3.org/2000/svg">
<path d="M187.727 355.606C290.21 355.606 373.289 312.363 373.289 259.019C373.289 205.675 290.21 162.432 187.727 162.432C85.2446 162.432 2.16602 205.675 2.16602 259.019C2.16602 312.363 85.2446 355.606 187.727 355.606Z" fill="#142D4D"/>
<path d="M332.765 229.657C332.765 229.657 335.024 196.219 334.39 183.893C333.862 174.149 332.538 170.089 332.262 167.888C332.262 167.888 329.866 145.153 329.671 125.754C329.573 116.432 328.712 109.806 323.603 98.7305L290.762 106.583C290.095 111.503 287.837 144.227 287.301 173.321C286.838 198.793 287.561 221.091 287.561 221.091V222.431C287.561 223.925 287.236 224.964 286.278 227.351C285.08 230.427 283.359 233.273 281.193 235.764C280.518 236.494 275.832 240.587 275.214 241.448C273.2 243.794 277.375 245.118 280.47 244.696C283.719 244.257 288.804 243.015 290.217 241.033C291.176 239.702 291.899 235.065 292.882 233.725C296.204 229.194 297.569 227.229 297.593 225.8C297.642 223.186 296.74 222.154 296.415 220.677C296.683 217.591 303.352 192.216 303.466 183.227C303.523 178.948 303.23 173.053 303.23 173.053L308.397 143.399C310.395 150.804 313.904 169.188 315.09 176.244C316.528 184.867 320.289 207.003 322.514 220.206C323.367 225.297 323.765 227.871 324.139 230.234L324.228 231.241C324.301 232.524 325.235 246.246 325.739 249.105C326.795 255.105 332.132 254.35 332.985 249.494C333.716 245.37 332.806 232.572 332.782 231.005L332.765 229.657Z" fill="#FFA8A7"/>
<path d="M332.766 229.658C334.277 229.658 333.286 235.513 333.676 239.256C334.09 243.275 335.406 246.215 335.788 249.503C336.3 252.378 335.858 255.341 334.529 257.94C333.481 260.376 328.201 263.624 326.195 260.206C324.188 256.787 323.758 252.833 323.994 249.081C324.229 245.33 323.994 242.813 324.067 239.865C324.14 237.267 322.231 230.633 324.188 230.259L324.278 231.266C324.985 232.671 332.117 232.947 332.831 231.047L332.766 229.658Z" fill="#004D98"/>
<path d="M297.934 228.992C298.397 230.868 297.934 236.016 297.934 236.016C297.934 236.016 297.121 237.794 294.222 238.972L292.922 231.81L297.934 228.992Z" fill="#00468B"/>
<path d="M294.203 238.972L287.819 236.877L286.275 231.209L293.456 234.839L294.203 238.972Z" fill="#003E7A"/>
<path d="M287.562 222.43V221.09C286.693 221.513 284.784 228.504 282.201 233.27C279.845 237.647 275.175 240.083 273.656 241.991C271.625 244.533 275.573 247.821 281.9 246.465C285.044 245.791 289.804 243.786 291.096 241.666C292.387 239.547 292.818 235.65 293.874 234.09C294.93 232.531 297.44 230.737 297.935 228.967C298.348 227.369 298.348 225.693 297.935 224.095C297.44 222.471 297.001 220.53 296.449 220.709V221.935C296.026 222.796 294.491 223.802 291.299 223.981C289.739 224.054 288.261 223.819 287.562 222.43Z" fill="#004D98"/>
<path d="M290.096 106.16C290.096 106.16 287.928 130.252 287.229 151.584C286.53 172.915 287.156 200.442 287.156 200.442C287.156 200.442 289.357 202.017 294.207 202.236C299.056 202.455 300.705 200.84 300.705 200.84C300.705 200.84 303.67 191.169 304.133 184.364C304.427 180.681 304.427 176.98 304.133 173.297L308.463 144.828C308.463 144.828 313.954 172.858 314.579 176.244C315.205 179.63 320.46 209.585 320.46 209.585C320.46 209.585 322.523 211.485 327.82 211.387C332.507 211.298 333.863 209.617 333.863 209.617C333.863 209.617 334.992 191.25 334.732 183.406C334.513 176.488 332.929 170.982 332.612 166.492C332.295 162.002 332.117 136.448 331.8 126.704C331.483 116.96 330.671 108.596 322.328 96.8711L290.096 106.16Z" fill="#0060BE"/>
<path d="M308.496 144.852L304.889 126.988C304.889 126.988 298.61 125.365 295.678 121.516C295.678 121.516 296.49 125.771 302.988 128.491L306.822 146.257L305.49 164.625L308.496 144.852Z" fill="#00468B"/>
<path d="M244.201 101.719C246.514 102.072 248.878 101.897 251.114 101.208C250.131 100.717 249.212 100.109 248.376 99.397C247.993 99.0889 247.744 98.6436 247.684 98.1555C247.623 97.6674 247.755 97.1749 248.051 96.7823C248.352 96.4575 249.099 97.2127 250.789 97.6918C252.95 98.3008 254.517 98.4307 256.597 99.6325C257.381 100.089 258.303 100.25 259.196 100.087C264.265 99.1372 276.084 93.5912 281.502 90.7005C282.607 86.1939 284.524 79.568 286.887 71.3018C289.072 63.6852 292.573 60.356 298.162 60.4778L297.358 77.0183C297.358 77.0183 294.694 88.4431 291.396 97.773C290.819 99.397 288.504 101.289 284.264 102.864C278.772 104.902 272.144 106.827 264.046 109.044C260.764 109.978 257.412 110.643 254.022 111.033C245.46 111.764 242.178 109.409 241.025 107.72C237.743 103.059 239.685 100.818 244.201 101.719Z" fill="#FFA8A7"/>
<path d="M312.567 60.3551L320.381 60.956C319.708 64.1307 319.899 67.4277 320.933 70.5038C321.968 73.5798 323.808 76.3225 326.262 78.4465L322.778 92.4779C322.891 94.2155 325.767 100.062 328.553 106.347C323.314 113.362 297.613 115.758 289.23 109.595C290.521 102.985 291.488 97.967 291.748 95.4579L291.325 86.3879C280.814 77.7725 293.494 64.6425 298.165 60.4688L304.03 60.209L312.567 60.3551Z" fill="#0060BE"/>
<path d="M345.472 130.26C344.905 129.818 344.456 129.242 344.164 128.585C343.872 127.928 343.747 127.209 343.799 126.492C343.937 125.185 344.237 123.545 344.781 122.911C345.326 122.278 348.737 117.641 350.248 120.337C351.873 123.277 351.54 124.47 351.54 124.47L345.472 130.26Z" fill="#F28F8F"/>
<path d="M334.948 192.231C331.281 192.109 327.71 191.029 324.592 189.097L284.034 165.679C277.771 162.066 272.661 153.239 272.661 146.004V111.99C272.657 110.851 272.354 109.734 271.782 108.75C271.21 107.765 270.39 106.948 269.402 106.381C268.415 105.814 267.296 105.515 266.157 105.516C265.019 105.517 263.9 105.818 262.914 106.387L248.715 114.604C248.53 114.722 248.323 114.801 248.107 114.836C247.891 114.872 247.67 114.863 247.457 114.811C247.244 114.759 247.044 114.664 246.869 114.533C246.693 114.402 246.546 114.236 246.437 114.046C246.327 113.857 246.257 113.647 246.231 113.43C246.204 113.212 246.222 112.992 246.283 112.781C246.344 112.571 246.447 112.375 246.586 112.205C246.725 112.036 246.896 111.896 247.09 111.795L261.33 103.569C262.81 102.715 264.49 102.264 266.199 102.264C267.909 102.263 269.588 102.712 271.07 103.565C272.551 104.418 273.782 105.645 274.639 107.124C275.495 108.603 275.948 110.281 275.951 111.99V146.004C275.951 152.094 280.419 159.808 285.699 162.869L326.257 186.271C331.447 189.268 336.264 189.787 339.806 187.749C343.348 185.711 345.305 181.253 345.305 175.285V131.859C345.305 124.502 350.008 116.025 356.011 112.558L365.913 106.874C366.098 106.756 366.305 106.678 366.521 106.642C366.737 106.606 366.958 106.615 367.171 106.667C367.384 106.719 367.584 106.814 367.759 106.945C367.935 107.077 368.082 107.242 368.191 107.432C368.301 107.621 368.371 107.831 368.397 108.049C368.424 108.266 368.406 108.487 368.345 108.697C368.284 108.907 368.181 109.103 368.042 109.273C367.904 109.442 367.732 109.582 367.538 109.683L357.636 115.367C352.713 118.209 348.554 125.753 348.554 131.851V175.277C348.554 182.471 346.02 187.895 341.431 190.551C339.458 191.679 337.22 192.259 334.948 192.231Z" fill="#37474F"/>
<path d="M264.868 116.951V119.606C264.868 123.853 261.887 129.025 258.199 131.145L233.602 145.346L208.592 130.909V109.261L232.847 98.0394C236.705 96.2611 242.814 96.5372 246.502 98.6565L258.183 105.404C261.862 107.532 264.868 112.704 264.868 116.951Z" fill="#0052A3"/>
<path d="M232.848 98.0394C236.707 96.2611 242.815 96.5372 246.503 98.6565L258.184 105.404C261.864 107.524 261.717 110.69 257.859 112.477L233.579 123.682L208.561 109.253L232.848 98.0394Z" fill="#0060BE"/>
<path opacity="0.15" d="M235.946 118.485C236.915 119.117 237.722 119.969 238.3 120.97C238.879 121.972 239.214 123.096 239.277 124.251V142.058L233.591 145.306L208.58 130.868V109.261L214.916 106.338L235.946 118.485Z" fill="black"/>
<path d="M206.444 105.534C206.819 105.36 207.233 105.289 207.645 105.329C208.056 105.369 208.449 105.519 208.783 105.762L233.38 119.964C234.35 120.596 235.158 121.448 235.736 122.452C236.315 123.455 236.649 124.581 236.71 125.737V146.914C236.754 147.326 236.687 147.742 236.516 148.119C236.344 148.496 236.075 148.82 235.735 149.058C235.167 149.374 233.16 150.535 232.6 150.868C232.224 151.043 231.808 151.113 231.395 151.073C230.983 151.033 230.588 150.884 230.252 150.641L205.648 136.439C204.679 135.807 203.872 134.956 203.294 133.954C202.715 132.953 202.381 131.829 202.317 130.674V109.497C202.274 109.085 202.341 108.669 202.511 108.291C202.68 107.913 202.947 107.587 203.284 107.345L206.444 105.534Z" fill="#0052A3"/>
<path d="M230.251 121.767L205.647 107.573C203.811 106.509 202.316 107.37 202.316 109.498V130.675C202.38 131.829 202.714 132.953 203.293 133.955C203.871 134.956 204.678 135.808 205.647 136.44L230.251 150.642C232.087 151.705 233.582 150.845 233.582 148.717V127.54C233.518 126.384 233.184 125.259 232.605 124.256C232.027 123.254 231.22 122.401 230.251 121.767Z" fill="#0060BE"/>
<path d="M201.111 146.419V150.081C201.111 151.567 201.623 152.598 202.468 153.085L204.677 154.36C205.207 154.617 205.796 154.726 206.383 154.675C206.97 154.623 207.531 154.413 208.008 154.068L228.315 142.326V127.873L226.106 126.598L205.758 138.339C204.403 139.226 203.276 140.42 202.469 141.824C201.661 143.228 201.196 144.802 201.111 146.419ZM210.315 141.888C210.392 142.152 210.436 142.425 210.445 142.7C210.387 143.785 210.073 144.841 209.53 145.782C208.986 146.723 208.228 147.523 207.317 148.116C207.064 148.264 206.79 148.373 206.505 148.44C206.434 148.175 206.396 147.903 206.391 147.628C206.45 146.543 206.764 145.488 207.307 144.547C207.85 143.606 208.608 142.806 209.519 142.212C209.771 142.075 210.038 141.966 210.315 141.888Z" fill="#0060BE"/>
<path opacity="0.2" d="M204.567 154.278C204.609 154.316 204.656 154.348 204.705 154.376L204.624 154.327L202.487 153.085C201.634 152.614 201.131 151.583 201.131 150.088V146.426C201.184 144.799 201.657 143.213 202.504 141.822L204.713 143.097C203.875 144.491 203.405 146.076 203.348 147.701V151.363C203.289 152.312 203.594 153.247 204.201 153.978C204.311 154.092 204.434 154.193 204.567 154.278Z" fill="black"/>
<path opacity="0.5" d="M228.321 127.873L208.013 139.614C206.635 140.472 205.5 141.669 204.715 143.089L202.506 141.815C203.29 140.396 204.422 139.2 205.796 138.339L226.144 126.598L228.321 127.873Z" fill="white"/>
<path opacity="0.2" d="M210.449 142.7C210.448 142.406 210.41 142.114 210.335 141.831C211.676 141.465 212.659 142.302 212.659 143.974C212.6 145.059 212.287 146.114 211.746 147.055C211.204 147.995 210.448 148.796 209.539 149.39C208.093 150.202 206.859 149.788 206.518 148.44C206.804 148.378 207.079 148.268 207.33 148.116C208.238 147.52 208.993 146.72 209.535 145.779C210.077 144.838 210.39 143.784 210.449 142.7Z" fill="black"/>
<path d="M182.357 135.587V139.257C182.357 140.735 182.869 141.774 183.714 142.253L185.923 143.536C186.452 143.788 187.04 143.892 187.623 143.838C188.206 143.784 188.764 143.573 189.238 143.227L209.545 131.478V117.049L207.336 115.766L187.028 127.507C185.67 128.393 184.539 129.586 183.728 130.99C182.917 132.393 182.447 133.968 182.357 135.587ZM191.561 131.031C191.635 131.315 191.673 131.607 191.674 131.9C191.616 132.985 191.302 134.041 190.759 134.982C190.215 135.923 189.458 136.723 188.547 137.316C188.29 137.456 188.017 137.565 187.735 137.641C187.657 137.363 187.619 137.076 187.621 136.788C187.679 135.704 187.992 134.649 188.534 133.708C189.076 132.767 189.832 131.967 190.74 131.372C190.996 131.221 191.273 131.106 191.561 131.031Z" fill="#0060BE"/>
<path opacity="0.2" d="M186.021 143.593H185.98H185.923L183.714 142.301C182.861 141.822 182.357 140.791 182.357 139.297V135.635C182.366 134.853 182.489 134.076 182.723 133.329C182.967 132.53 183.303 131.762 183.722 131.039L185.932 132.306C185.722 132.668 185.535 133.042 185.371 133.426C184.867 134.518 184.59 135.7 184.559 136.902V140.564C184.49 141.507 184.78 142.441 185.371 143.178C185.563 143.352 185.782 143.493 186.021 143.593Z" fill="black"/>
<path opacity="0.5" d="M209.571 117.049L189.263 128.79C187.884 129.646 186.748 130.843 185.965 132.265L183.756 130.999C184.526 129.579 185.644 128.378 187.005 127.507L207.312 115.766L209.571 117.049Z" fill="white"/>
<path opacity="0.2" d="M191.664 131.891C191.665 131.601 191.63 131.312 191.558 131.031C192.89 130.657 193.881 131.502 193.881 133.174C193.823 134.259 193.51 135.314 192.968 136.255C192.426 137.195 191.671 137.996 190.762 138.59C189.308 139.402 188.081 138.988 187.74 137.632C188.028 137.572 188.303 137.462 188.553 137.307C189.461 136.713 190.215 135.912 190.756 134.971C191.297 134.03 191.607 132.975 191.664 131.891Z" fill="black"/>
<path d="M188.514 122.036C188.244 122.036 187.981 121.946 187.767 121.78C187.554 121.614 187.402 121.381 187.337 121.118L184.087 108.386C184.007 108.073 184.054 107.74 184.218 107.461C184.383 107.183 184.651 106.981 184.965 106.9C185.278 106.819 185.611 106.866 185.89 107.031C186.168 107.195 186.37 107.464 186.451 107.777L189.7 120.517C189.742 120.672 189.752 120.833 189.73 120.992C189.708 121.15 189.655 121.303 189.573 121.441C189.491 121.578 189.383 121.698 189.254 121.793C189.125 121.889 188.979 121.957 188.823 121.995C188.722 122.021 188.619 122.035 188.514 122.036Z" fill="#E0E0E0"/>
<path d="M179.368 127.345C179.094 127.346 178.828 127.254 178.612 127.085L166.517 117.528C166.384 117.432 166.271 117.31 166.186 117.169C166.101 117.028 166.046 116.871 166.023 116.708C166.001 116.545 166.011 116.379 166.054 116.22C166.098 116.062 166.173 115.913 166.275 115.784C166.377 115.655 166.504 115.548 166.649 115.47C166.793 115.391 166.952 115.343 167.116 115.328C167.28 115.312 167.445 115.33 167.602 115.38C167.759 115.431 167.904 115.512 168.028 115.62L180.123 125.169C180.376 125.37 180.539 125.663 180.577 125.984C180.615 126.305 180.525 126.628 180.326 126.882C180.213 127.028 180.067 127.145 179.901 127.226C179.735 127.306 179.552 127.347 179.368 127.345Z" fill="#E0E0E0"/>
<path d="M162.699 139.005C162.376 139.017 162.062 138.9 161.825 138.68C161.588 138.46 161.448 138.155 161.436 137.832C161.425 137.509 161.542 137.194 161.762 136.957C161.982 136.721 162.287 136.581 162.61 136.569L176.752 135.473C176.912 135.46 177.073 135.478 177.225 135.527C177.378 135.577 177.519 135.656 177.64 135.76C177.762 135.864 177.862 135.992 177.934 136.135C178.006 136.278 178.049 136.434 178.06 136.593C178.083 136.915 177.978 137.232 177.768 137.477C177.558 137.722 177.26 137.874 176.939 137.901L162.797 138.997L162.699 139.005Z" fill="#E0E0E0"/>
<path d="M356.529 117.009C356.253 114.009 355.808 111.027 355.196 108.077C353.348 101.156 350.885 94.4138 347.837 87.9311C346.48 85.3408 343.418 81.565 341.249 78.3738C338.179 73.8672 336.018 71.3419 333.687 68.2807C328.553 61.5654 326.376 61.1757 320.381 60.9727C319.569 63.1082 317.717 71.8616 323.72 78.9341L336.587 92.4945C337.318 93.6719 345.181 107.11 346.489 112.072C346.715 112.954 346.605 113.889 346.18 114.695C345.152 116.969 344.397 119.356 343.93 121.808C343.548 123.529 342.525 124.893 342.874 125.161C343.305 125.449 343.822 125.584 344.339 125.543C344.856 125.501 345.345 125.287 345.725 124.934C346.644 123.949 347.393 122.818 347.943 121.588C348.184 121.573 348.426 121.607 348.654 121.69C348.881 121.773 349.089 121.902 349.264 122.069C349.439 122.236 349.577 122.438 349.67 122.661C349.762 122.885 349.808 123.125 349.803 123.367C349.876 124.365 349.421 125.754 349.072 127.484C349.007 127.825 348.925 128.214 348.771 129.156C348.638 129.792 348.562 130.439 348.544 131.089C350.168 131.389 351.866 130.399 354.595 127.841C357.057 125.454 357.219 122.319 356.529 117.009Z" fill="#FFA8A7"/>
<path d="M313.966 56.4088C314.014 54.7848 319.294 50.9847 321.967 46.9409C324.404 43.1895 327.905 32.8771 319.701 29.5803C319.701 29.5803 321.471 24.6353 318.255 21.7202C315.038 18.8051 310.708 20.6077 310.026 21.8257C309.614 20.3073 308.722 18.9624 307.484 17.991C306.246 17.0196 304.728 16.4735 303.154 16.4341C301.617 16.3184 300.09 16.7616 298.854 17.6823C297.618 18.6029 296.757 19.9388 296.428 21.4441C295.13 20.8824 293.678 20.784 292.316 21.1654C290.954 21.5468 289.764 22.3849 288.947 23.5391C285.933 27.6884 289.93 31.4885 289.93 31.4885C289.412 31.8382 288.998 32.3221 288.733 32.8884C288.469 33.4547 288.363 34.0823 288.427 34.7041C288.663 36.458 290.344 36.8883 290.539 37.7653C290.577 37.9488 290.554 38.1396 290.473 38.3087C290.392 38.4778 290.259 38.616 290.093 38.7023C289.926 38.7887 289.736 38.8184 289.552 38.7871C289.367 38.7557 289.197 38.665 289.069 38.5286C289.113 38.7575 289.201 38.9756 289.33 39.1703C289.458 39.3649 289.623 39.5323 289.817 39.6628C290.01 39.7933 290.227 39.8844 290.455 39.9309C290.684 39.9773 290.919 39.9781 291.148 39.9333C293.041 39.8278 294.731 37.2537 294.731 37.2537L313.966 56.4088Z" fill="#0056AA"/>
<path d="M296.745 29.0605C294.308 30.1161 292.009 33.827 292.041 44.2043C292.041 52.9983 294.771 55.2232 296.103 55.8809C297.435 56.5386 300.124 56.1976 302.715 55.7997V60.8585C302.715 60.8585 298.028 66.6724 302.228 69.5631C313.047 67.6711 313.876 60.5743 313.876 60.5743L314.071 49.5473C314.071 49.5473 315.557 51.1063 318.132 48.8165C320.293 46.9245 321.073 43.6847 319.448 41.8983C317.824 40.1119 315.744 39.9738 313.86 41.9632C313.86 41.9632 310.407 42.1906 305.217 38.9345C300.026 35.6783 298.174 32.3735 296.745 29.0605Z" fill="#FFA8A7"/>
<path d="M302.978 49.7102C302.989 49.878 302.967 50.0463 302.912 50.2053C302.857 50.3643 302.771 50.5108 302.659 50.6363C302.548 50.7618 302.412 50.8638 302.26 50.9363C302.108 51.0088 301.944 51.0504 301.776 51.0587C301.516 51.0796 301.255 51.0221 301.027 50.8935C300.8 50.765 300.616 50.5713 300.5 50.3374C300.384 50.1035 300.34 49.8401 300.375 49.5812C300.41 49.3223 300.521 49.0797 300.695 48.8848C300.869 48.6898 301.097 48.5513 301.35 48.4872C301.603 48.4231 301.87 48.4364 302.116 48.5252C302.361 48.614 302.575 48.7743 302.729 48.9856C302.882 49.1968 302.969 49.4492 302.978 49.7102Z" fill="#B16668"/>
<path d="M296.291 41.1996C296.289 41.4284 296.22 41.6518 296.092 41.8419C295.965 42.032 295.784 42.1805 295.573 42.269C295.362 42.3576 295.13 42.3823 294.905 42.34C294.68 42.2978 294.472 42.1905 294.308 42.0314C294.143 41.8724 294.029 41.6685 293.979 41.4451C293.929 41.2217 293.946 40.9886 294.028 40.7747C294.109 40.5607 294.251 40.3754 294.437 40.2415C294.623 40.1077 294.843 40.0313 295.072 40.0217C295.23 40.0185 295.386 40.0465 295.533 40.104C295.679 40.1616 295.813 40.2475 295.926 40.357C296.04 40.4665 296.13 40.5973 296.193 40.7419C296.255 40.8865 296.288 41.0421 296.291 41.1996Z" fill="#0D0F10"/>
<path d="M305.286 41.7364C305.297 41.9042 305.274 42.0724 305.219 42.2314C305.165 42.3904 305.079 42.5369 304.967 42.6624C304.855 42.7879 304.719 42.8899 304.568 42.9624C304.416 43.0349 304.251 43.0765 304.084 43.0848C303.744 43.087 303.417 42.9552 303.174 42.718C302.93 42.4808 302.79 42.1573 302.784 41.8176C302.779 41.6533 302.806 41.4896 302.864 41.3358C302.921 41.182 303.009 41.0411 303.122 40.9212C303.234 40.8012 303.369 40.7046 303.519 40.6368C303.668 40.569 303.83 40.5314 303.994 40.526C304.158 40.5207 304.322 40.5478 304.476 40.6057C304.63 40.6637 304.771 40.7513 304.891 40.8637C305.011 40.9761 305.107 41.111 305.175 41.2608C305.243 41.4105 305.28 41.5721 305.286 41.7364Z" fill="#0D0F10"/>
<path d="M295.477 36.5469L293 38.0009C293.088 38.1684 293.211 38.3159 293.358 38.4342C293.506 38.5525 293.677 38.6392 293.86 38.6887C294.043 38.7382 294.234 38.7496 294.421 38.7221C294.609 38.6946 294.789 38.6288 294.95 38.5289C295.275 38.3296 295.512 38.0126 295.61 37.6435C295.708 37.2745 295.661 36.8818 295.477 36.5469Z" fill="#0D0F10"/>
<path d="M313.911 40.5352V45.4072C313.599 45.4151 313.288 45.359 312.998 45.2424C312.708 45.1257 312.445 44.951 312.225 44.7288C312.005 44.5067 311.833 44.242 311.719 43.9508C311.606 43.6597 311.553 43.3484 311.564 43.0361C311.567 42.3998 311.81 41.7882 312.246 41.3242C312.681 40.8602 313.276 40.5783 313.911 40.5352Z" fill="#0056AA"/>
<path d="M299.487 40.0391L298.991 47.0547L295.287 46.1859L299.487 40.0391Z" fill="#F28F8F"/>
<path d="M302.744 55.8159C305.466 55.4993 311.087 53.9402 312.005 51.6504C311.641 52.7976 310.939 53.8081 309.99 54.5492C308.292 56.0108 302.736 57.5211 302.736 57.5211L302.744 55.8159Z" fill="#F28F8F"/>
<path d="M335.46 1.55824C336.496 1.95374 337.468 2.50106 338.344 3.18224C339.192 3.80184 339.921 4.56929 340.496 5.44772C341.044 6.29274 341.404 7.2452 341.552 8.241C341.699 9.30386 341.567 10.3865 341.171 11.3834C340.887 12.1816 340.448 12.9157 339.879 13.5434C339.37 14.0785 338.788 14.5379 338.149 14.9075C337.527 15.2627 336.874 15.5616 336.199 15.8007L334.282 16.4909C333.718 16.6946 333.174 16.9501 332.658 17.2542C332.171 17.499 331.762 17.8761 331.48 18.3423C331.35 18.5599 331.165 18.7393 330.944 18.862C330.838 18.9203 330.72 18.9543 330.599 18.9613C330.478 18.9683 330.357 18.9483 330.245 18.9026L327.711 17.9525C327.59 17.908 327.48 17.8398 327.387 17.7519C327.293 17.6641 327.218 17.5583 327.167 17.441C327.111 17.3287 327.082 17.205 327.082 17.0796C327.082 16.9542 327.111 16.8306 327.167 16.7183C327.492 15.937 327.973 15.2298 328.58 14.6396C329.13 14.1223 329.744 13.6775 330.408 13.316C331.048 12.9724 331.716 12.6844 332.406 12.4553C333.088 12.2279 333.722 12.0087 334.315 11.7813C334.85 11.5848 335.365 11.3345 335.85 11.0343C336.267 10.7699 336.587 10.3764 336.76 9.91372C336.92 9.50845 336.978 9.07016 336.93 8.63707C336.882 8.20398 336.729 7.78924 336.484 7.429C335.872 6.54173 334.984 5.88209 333.957 5.55328C333.063 5.1977 332.081 5.1278 331.146 5.35319C330.21 5.57858 329.368 6.08818 328.734 6.81188C328.572 6.98301 328.383 7.12574 328.174 7.23412C327.948 7.30471 327.705 7.2873 327.491 7.1854L324.795 6.1704C324.698 6.13704 324.61 6.0846 324.535 6.01623C324.459 5.94786 324.399 5.86496 324.356 5.77252C324.309 5.67777 324.285 5.5736 324.285 5.46802C324.285 5.36244 324.309 5.25827 324.356 5.16352C324.713 4.33557 325.272 3.6099 325.981 3.05232C326.77 2.39616 327.669 1.88483 328.637 1.542C329.7 1.1666 330.816 0.963734 331.943 0.94112C333.144 0.918408 334.338 1.12796 335.46 1.55824ZM329.677 20.965C329.795 21.0071 329.903 21.0737 329.994 21.1604C330.085 21.2472 330.157 21.3521 330.205 21.4685C330.255 21.5838 330.28 21.7082 330.28 21.8339C330.28 21.9596 330.255 22.084 330.205 22.1993L329.1 25.1306C329.058 25.249 328.991 25.3573 328.904 25.4482C328.818 25.5392 328.713 25.6108 328.596 25.6584C328.481 25.7085 328.356 25.7343 328.231 25.7343C328.105 25.7343 327.98 25.7085 327.865 25.6584L324.998 24.5784C324.879 24.5364 324.771 24.4698 324.68 24.3831C324.589 24.2963 324.517 24.1913 324.47 24.075C324.42 23.9597 324.394 23.8353 324.394 23.7096C324.394 23.5839 324.42 23.4595 324.47 23.3442L325.574 20.4129C325.618 20.2941 325.685 20.1854 325.771 20.0933C325.858 20.0012 325.962 19.9276 326.078 19.877C326.194 19.8287 326.318 19.8039 326.444 19.8039C326.569 19.8039 326.693 19.8287 326.809 19.877L329.677 20.965Z" fill="#0060BE"/>
<path d="M336.868 36.556C336.953 36.6392 337.02 36.7384 337.066 36.8478C337.112 36.9573 337.136 37.0748 337.136 37.1935C337.136 37.3122 337.112 37.4297 337.066 37.5391C337.02 37.6485 336.953 37.7477 336.868 37.8309L334.837 39.9746C334.756 40.0611 334.658 40.1301 334.549 40.1776C334.44 40.2251 334.322 40.2499 334.204 40.2506C334.085 40.255 333.966 40.2357 333.854 40.1938C333.743 40.152 333.641 40.0885 333.554 40.007L331.482 38.0176C331.396 37.9363 331.327 37.8382 331.279 37.7293C331.232 37.6204 331.207 37.503 331.206 37.3843C331.2 37.2651 331.218 37.1459 331.26 37.0341C331.302 36.9223 331.367 36.8204 331.45 36.7347L333.489 34.5991C333.659 34.432 333.888 34.3384 334.126 34.3384C334.365 34.3384 334.594 34.432 334.764 34.5991L336.868 36.556ZM349.052 21.8345C349.808 22.5499 350.456 23.3703 350.978 24.2705C351.48 25.1235 351.829 26.0579 352.009 27.0313C352.161 27.9644 352.114 28.9191 351.871 29.8327C351.612 30.6971 351.175 31.4981 350.589 32.1845C350.003 32.871 349.281 33.4278 348.468 33.8196C347.832 34.1001 347.159 34.2861 346.469 34.3718C345.798 34.4473 345.121 34.4663 344.447 34.4286L342.53 34.323C341.958 34.2922 341.384 34.3112 340.816 34.3799C340.306 34.4361 339.822 34.6329 339.419 34.9483C339.227 35.0927 338.999 35.1799 338.761 35.2C338.647 35.2128 338.531 35.1997 338.423 35.1618C338.315 35.1238 338.216 35.0619 338.135 34.9808L336.291 33.2268C336.114 33.0594 336.009 32.8292 335.999 32.5854C335.987 32.4654 336.005 32.3444 336.05 32.2327C336.095 32.121 336.167 32.0219 336.259 31.9439C336.825 31.3814 337.499 30.9394 338.241 30.6447C338.908 30.397 339.604 30.236 340.312 30.1656C340.996 30.1089 341.683 30.1089 342.367 30.1656C343.044 30.2252 343.678 30.2657 344.268 30.2874C344.811 30.3148 345.356 30.2848 345.893 30.1981C346.355 30.1262 346.78 29.9036 347.103 29.5647C347.388 29.27 347.597 28.9108 347.713 28.5178C347.829 28.1247 347.848 27.7094 347.769 27.3074C347.567 26.3113 347.038 25.4111 346.266 24.7496C345.618 24.1152 344.789 23.6968 343.893 23.5514C342.997 23.4061 342.079 23.5409 341.262 23.9376C341.062 24.0257 340.848 24.0779 340.629 24.0918C340.518 24.0852 340.409 24.0558 340.31 24.0055C340.211 23.9552 340.123 23.8851 340.052 23.7995L338.086 21.9238C337.945 21.7958 337.858 21.6186 337.843 21.4285C337.838 21.328 337.854 21.2277 337.89 21.1339C337.927 21.0402 337.982 20.9552 338.054 20.8844C338.668 20.3003 339.415 19.874 340.231 19.6421C341.157 19.3652 342.125 19.2525 343.09 19.3092C344.153 19.3739 345.198 19.6097 346.185 20.0075C347.241 20.4237 348.205 21.0446 349.02 21.8345H349.052Z" fill="#0060BE"/>
<g opacity="0.6">
<path opacity="0.6" d="M336.864 36.556C336.949 36.6392 337.016 36.7384 337.062 36.8478C337.108 36.9573 337.132 37.0748 337.132 37.1935C337.132 37.3122 337.108 37.4297 337.062 37.5391C337.016 37.6485 336.949 37.7477 336.864 37.8309L334.833 39.9746C334.752 40.0611 334.654 40.1301 334.545 40.1776C334.436 40.2251 334.319 40.2499 334.2 40.2506C334.081 40.255 333.962 40.2357 333.85 40.1938C333.739 40.152 333.637 40.0885 333.55 40.007L331.479 38.0176C331.392 37.9363 331.323 37.8382 331.275 37.7293C331.228 37.6204 331.203 37.503 331.202 37.3843C331.196 37.2651 331.215 37.1459 331.257 37.0341C331.298 36.9223 331.363 36.8204 331.446 36.7347L333.485 34.5991C333.655 34.432 333.884 34.3384 334.123 34.3384C334.361 34.3384 334.59 34.432 334.76 34.5991L336.864 36.556ZM349.049 21.8345C349.804 22.5499 350.452 23.3703 350.974 24.2705C351.476 25.1235 351.825 26.0579 352.005 27.0313C352.158 27.9644 352.11 28.9191 351.867 29.8327C351.608 30.6971 351.172 31.4981 350.586 32.1845C350 32.871 349.277 33.4278 348.464 33.8196C347.828 34.1001 347.155 34.2861 346.465 34.3718C345.794 34.4473 345.117 34.4663 344.443 34.4286L342.526 34.323C341.954 34.2922 341.38 34.3112 340.812 34.3799C340.302 34.4361 339.819 34.6329 339.415 34.9483C339.224 35.0927 338.995 35.1799 338.757 35.2C338.643 35.2128 338.527 35.1997 338.419 35.1618C338.311 35.1238 338.212 35.0619 338.131 34.9808L336.287 33.2268C336.11 33.0594 336.005 32.8292 335.995 32.5854C335.983 32.4654 336.001 32.3444 336.046 32.2327C336.091 32.121 336.163 32.0219 336.255 31.9439C336.821 31.3814 337.495 30.9394 338.237 30.6447C338.904 30.397 339.6 30.236 340.308 30.1656C340.992 30.1089 341.679 30.1089 342.363 30.1656C343.04 30.2252 343.674 30.2657 344.264 30.2874C344.807 30.3148 345.352 30.2848 345.889 30.1981C346.351 30.1262 346.777 29.9036 347.099 29.5647C347.384 29.27 347.593 28.9108 347.709 28.5178C347.825 28.1247 347.844 27.7094 347.765 27.3074C347.563 26.3113 347.034 25.4111 346.262 24.7496C345.614 24.1152 344.785 23.6968 343.889 23.5514C342.993 23.4061 342.075 23.5409 341.259 23.9376C341.058 24.0257 340.844 24.0779 340.625 24.0918C340.514 24.0852 340.405 24.0558 340.306 24.0055C340.207 23.9552 340.119 23.8851 340.048 23.7995L338.083 21.9238C337.941 21.7958 337.854 21.6186 337.839 21.4285C337.834 21.328 337.85 21.2277 337.886 21.1339C337.923 21.0402 337.978 20.9552 338.05 20.8844C338.664 20.3003 339.411 19.874 340.227 19.6421C341.153 19.3652 342.121 19.2525 343.086 19.3092C344.149 19.3739 345.194 19.6097 346.181 20.0075C347.237 20.4237 348.201 21.0446 349.016 21.8345H349.049Z" fill="white"/>
</g>
<path d="M47.834 240.716C50.409 242.283 53.8287 242.34 57.0536 241.211L59.4905 224.159L48.1183 221.252L47.834 240.716Z" fill="#FFA8A7"/>
<path d="M66.1833 257.038C66.4676 257.33 66.297 259.474 65.9477 259.953C65.5984 260.432 63.6408 262.056 60.0342 262.121C56.5982 262.178 53.5358 261.552 51.6188 260.164C49.7017 258.775 48.7839 257.322 48.6945 255.357C48.6051 253.392 48.9301 251.532 48.0853 249.981C47.2405 248.43 46.2251 247.131 45.9652 246.368C45.66 244.985 45.66 243.553 45.9652 242.17L66.1833 257.038Z" fill="#00468B"/>
<path d="M57.8404 240.496C57.8564 241.237 57.96 241.973 58.1491 242.689C58.592 244.225 59.2165 245.702 60.0092 247.09C60.4035 247.814 60.8459 248.511 61.3333 249.177C62.2999 250.468 63.5346 251.548 64.5825 252.79C65.6948 253.968 66.3638 255.494 66.4751 257.11C66.4751 259.806 63.5102 260.561 61.2439 260.837C58.7812 261.137 56.2825 260.879 53.9332 260.082C52.7038 259.689 51.6138 258.95 50.794 257.953C49.9742 256.957 49.4594 255.745 49.3113 254.463C49.2219 253.708 49.3113 252.953 49.2625 252.197C49.0602 250.465 48.4293 248.81 47.4267 247.382C46.8439 246.556 46.3535 245.668 45.9646 244.735C45.3473 243.038 46.0133 241.195 46.5495 239.563C47.0125 238.158 47.3618 236.461 47.8816 236.623C47.8816 236.907 47.8816 237.541 47.8816 237.541C48.0278 237.857 48.3853 238.085 48.4746 238.458C48.5589 238.844 48.6757 239.221 48.8239 239.587C49.0451 240.152 49.4369 240.635 49.9449 240.967C50.0342 239.952 50.1236 238.937 50.2048 237.931C50.1817 237.771 50.1955 237.607 50.2449 237.453C50.2944 237.3 50.3783 237.159 50.4903 237.042C50.6023 236.926 50.7394 236.836 50.8912 236.78C51.043 236.725 51.2055 236.704 51.3664 236.721C53.2718 236.372 55.2191 236.315 57.1418 236.55C57.2866 236.561 57.4279 236.6 57.5576 236.666C57.6872 236.731 57.8026 236.822 57.8973 236.932C57.9964 237.147 58.0276 237.388 57.9866 237.622C57.8861 238.577 57.8372 239.536 57.8404 240.496Z" fill="#0060BE"/>
<path opacity="0.2" d="M57.8404 240.496C57.8564 241.237 57.96 241.973 58.1491 242.689C58.592 244.225 59.2165 245.702 60.0092 247.09C60.4035 247.814 60.8459 248.511 61.3333 249.177C62.2999 250.468 63.5346 251.548 64.5825 252.79C65.6948 253.968 66.3638 255.494 66.4751 257.11C66.4751 259.806 63.5102 260.561 61.2439 260.837C58.7812 261.137 56.2825 260.879 53.9332 260.082C52.7038 259.689 51.6138 258.95 50.794 257.953C49.9742 256.957 49.4594 255.745 49.3113 254.463C49.2219 253.708 49.3113 252.953 49.2625 252.197C49.0602 250.465 48.4293 248.81 47.4267 247.382C46.8439 246.556 46.3535 245.668 45.9646 244.735C45.3473 243.038 46.0133 241.195 46.5495 239.563C47.0125 238.158 47.3618 236.461 47.8816 236.623C47.8816 236.907 47.8816 237.541 47.8816 237.541C48.0278 237.857 48.3853 238.085 48.4746 238.458C48.5589 238.844 48.6757 239.221 48.8239 239.587C49.0451 240.152 49.4369 240.635 49.9449 240.967C50.0342 239.952 50.1236 238.937 50.2048 237.931C50.1817 237.771 50.1955 237.607 50.2449 237.453C50.2944 237.3 50.3783 237.159 50.4903 237.042C50.6023 236.926 50.7394 236.836 50.8912 236.78C51.043 236.725 51.2055 236.704 51.3664 236.721C53.2718 236.372 55.2191 236.315 57.1418 236.55C57.2866 236.561 57.4279 236.6 57.5576 236.666C57.6872 236.731 57.8026 236.822 57.8973 236.932C57.9964 237.147 58.0276 237.388 57.9866 237.622C57.8861 238.577 57.8372 239.536 57.8404 240.496Z" fill="black"/>
<path d="M60.3438 247.675C59.3853 246.863 57.1434 246.741 55.9087 246.806C54.6578 246.848 53.4374 247.203 52.3589 247.838C52.1996 247.935 52.0116 247.974 51.8267 247.949C51.6418 247.924 51.4712 247.836 51.3435 247.699C51.2685 247.62 51.2117 247.526 51.1772 247.422C51.1426 247.319 51.1311 247.209 51.1435 247.101C51.1559 246.992 51.1919 246.888 51.2489 246.795C51.3059 246.702 51.3826 246.622 51.4735 246.562C52.6672 245.784 54.0538 245.354 55.4781 245.319C58.5486 245.271 59.3609 245.823 59.3609 245.823C59.3609 245.823 60.6931 246.798 60.3438 247.675Z" fill="#0060BE"/>
<path d="M62.4894 250.549C61.2709 249.737 58.8015 249.737 57.5668 249.778C56.3389 249.836 55.1481 250.217 54.1146 250.882C53.9544 250.981 53.7648 251.022 53.578 250.997C53.3913 250.971 53.2192 250.882 53.0911 250.744C53.0151 250.665 52.9576 250.57 52.9229 250.466C52.8881 250.362 52.8769 250.252 52.8902 250.143C52.9034 250.034 52.9407 249.93 52.9993 249.837C53.0579 249.744 53.1364 249.666 53.2292 249.607C54.4298 248.786 55.8372 248.319 57.2906 248.259C60.3205 248.202 61.076 248.868 61.076 248.868C61.4243 249.022 61.7328 249.253 61.9778 249.545C62.2228 249.836 62.3978 250.18 62.4894 250.549Z" fill="#0060BE"/>
<path d="M54.4281 242.372C55.7109 242.218 57.0117 242.397 58.2053 242.892C58.717 243.225 59.0176 244.078 58.6683 244.273C57.6148 243.784 56.4567 243.563 55.2973 243.631C54.162 243.681 53.0438 243.926 51.9912 244.354C51.7232 244.451 51.4145 244.597 51.1789 244.727C51.0921 244.772 50.9971 244.798 50.8997 244.804C50.8024 244.81 50.7049 244.796 50.6133 244.762C50.5218 244.728 50.4382 244.676 50.3677 244.609C50.2973 244.541 50.2416 244.46 50.2042 244.37C50.1532 244.22 50.1561 244.057 50.2125 243.908C50.2688 243.76 50.375 243.636 50.5128 243.558C51.7187 242.888 53.0535 242.484 54.4281 242.372Z" fill="#0060BE"/>
<path d="M79.8856 234.308C81.8676 239.27 84.9706 237.743 89.6981 234.885L90.4129 217.946L78.3828 216.834L79.8856 234.308Z" fill="#FFA8A7"/>
<path d="M107.848 246.254C108.068 247.052 107.975 247.902 107.588 248.634C107.215 249.316 103.454 251.183 98.5394 250.582C94.8956 250.134 91.4392 248.715 88.5319 246.474C86.7205 245.126 84.7791 244.793 82.3422 244.517C79.9053 244.241 78.0777 243.396 77.5984 242.227C77.1192 241.058 77.8502 239.125 77.8502 239.125L107.848 246.254Z" fill="#00468B"/>
<path d="M88.7065 230.639C89.1506 230.545 89.5877 230.42 90.0143 230.265C90.2528 230.177 90.515 230.177 90.7535 230.265C91.0622 230.403 91.1596 230.777 91.2328 231.077C91.3021 231.812 91.4436 232.538 91.6551 233.245C91.9875 233.832 92.4286 234.35 92.9548 234.772C94.1256 235.819 95.4024 236.742 96.7645 237.524C98.3322 238.483 99.8756 239.238 101.492 240.074C103.109 240.91 105.375 241.511 106.658 242.51C108.518 243.923 108.592 247.212 106.317 248.381C104.359 249.396 99.2907 250.338 94.1327 248.568C91.314 247.601 88.3085 244.378 84.5719 243.882C82.1919 243.574 79.0239 243.2 77.5862 241.308C77.0663 240.496 77.5212 238.142 77.9436 235.389C78.3253 232.953 78.6746 229.055 79.4626 229.315L79.5194 230.062L80.4779 231.207C80.6879 231.43 80.9103 231.642 81.144 231.84C81.4005 232.14 81.6716 232.428 81.9563 232.701C82.3425 233.032 82.8225 233.233 83.3291 233.278C83.5692 233.293 83.8087 233.239 84.0195 233.123C84.4257 232.896 84.4826 232.36 84.8318 232.027C85.2096 231.639 85.663 231.332 86.164 231.126C86.8599 230.878 87.5874 230.731 88.3247 230.687C88.4529 230.679 88.5804 230.663 88.7065 230.639Z" fill="#0060BE"/>
<path opacity="0.2" d="M88.7065 230.639C89.1506 230.545 89.5877 230.42 90.0143 230.265C90.2528 230.177 90.515 230.177 90.7535 230.265C91.0622 230.403 91.1596 230.777 91.2328 231.077C91.3021 231.812 91.4436 232.538 91.6551 233.245C91.9875 233.832 92.4286 234.35 92.9548 234.772C94.1256 235.819 95.4024 236.742 96.7645 237.524C98.3322 238.483 99.8756 239.238 101.492 240.074C103.109 240.91 105.375 241.511 106.658 242.51C108.518 243.923 108.592 247.212 106.317 248.381C104.359 249.396 99.2907 250.338 94.1327 248.568C91.314 247.601 88.3085 244.378 84.5719 243.882C82.1919 243.574 79.0239 243.2 77.5862 241.308C77.0663 240.496 77.5212 238.142 77.9436 235.389C78.3253 232.953 78.6746 229.055 79.4626 229.315L79.5194 230.062L80.4779 231.207C80.6879 231.43 80.9103 231.642 81.144 231.84C81.4005 232.14 81.6716 232.428 81.9563 232.701C82.3425 233.032 82.8225 233.233 83.3291 233.278C83.5692 233.293 83.8087 233.239 84.0195 233.123C84.4257 232.896 84.4826 232.36 84.8318 232.027C85.2096 231.639 85.663 231.332 86.164 231.126C86.8599 230.878 87.5874 230.731 88.3247 230.687C88.4529 230.679 88.5804 230.663 88.7065 230.639Z" fill="black"/>
<path d="M94.6141 236.08C94.4578 235.742 94.2201 235.449 93.9223 235.227C93.6245 235.004 93.2761 234.859 92.9083 234.805C91.8361 234.545 89.8784 235.243 88.6356 236.161C88.5176 236.247 88.4224 236.36 88.3583 236.491C88.2942 236.622 88.2633 236.767 88.2681 236.913C88.2729 237.059 88.3133 237.201 88.3859 237.327C88.4585 237.454 88.5609 237.561 88.6844 237.639C88.8409 237.733 89.0223 237.778 89.2049 237.768C89.3874 237.758 89.5627 237.693 89.7078 237.582C91.0821 236.456 92.8447 235.916 94.6141 236.08Z" fill="#0060BE"/>
<path d="M97.8714 238.166C97.6524 237.821 97.3537 237.533 97.0003 237.327C96.647 237.12 96.2493 237.002 95.8407 236.981C94.1649 236.964 92.5268 237.479 91.1618 238.451C91.0462 238.531 90.9517 238.637 90.8865 238.762C90.8212 238.886 90.7871 239.025 90.7871 239.165C90.7871 239.306 90.8212 239.444 90.8865 239.569C90.9517 239.693 91.0462 239.8 91.1618 239.88C91.3139 239.971 91.4904 240.014 91.6675 240.003C91.8447 239.991 92.0141 239.925 92.1528 239.815C92.9202 239.127 93.8331 238.622 94.8234 238.336C95.8136 238.051 96.8556 237.993 97.8714 238.166Z" fill="#0060BE"/>
<path d="M101.496 240.067C101.243 239.744 100.924 239.48 100.559 239.292C100.195 239.104 99.7939 238.997 99.3843 238.979C97.767 238.992 96.195 239.514 94.8923 240.473C94.7793 240.556 94.6883 240.666 94.6272 240.793C94.5661 240.92 94.5367 241.059 94.5415 241.2C94.5463 241.341 94.5852 241.478 94.6548 241.6C94.7243 241.722 94.8226 241.826 94.941 241.902C95.0885 242.001 95.2645 242.049 95.442 242.039C95.6196 242.029 95.7889 241.961 95.9239 241.845C96.649 241.134 97.5308 240.602 98.4986 240.294C99.4663 239.985 100.493 239.907 101.496 240.067Z" fill="#0060BE"/>
<path d="M47.5184 195C47.884 186.823 49.6223 182.568 49.866 180.303C49.866 180.303 50.5321 135.318 51.6287 121.668L91.9186 119.955C92.5116 134.571 93.0477 173.839 92.7309 179.036C92.4304 184.014 90.4078 227.188 90.4078 227.188C84.7217 228.966 78.6538 226.376 78.6538 226.376C78.6538 226.376 75.2747 201.813 74.7223 196.397C74.3302 191.525 74.4555 186.626 75.096 181.781L72.521 146.808C72.521 146.808 69.4099 173.929 67.8746 184.16C66.1201 195.861 58.5495 232.133 58.5495 232.133C53.1071 233.489 47.8109 231.142 47.8109 231.142C47.8109 231.142 46.9823 206.847 47.5184 195Z" fill="#0060BE"/>
<path d="M72.5234 146.84L73.287 142.017C75.6345 141.668 81.5806 137.957 85.0978 134.709C82.5923 138.499 79.2024 141.623 75.2203 143.811L75.0984 181.797L72.5234 146.84Z" fill="#00468B"/>
<path d="M89.0491 96.2609C86.3117 90.0166 81.6003 79.5012 81.6003 79.5012L80.4062 62.4492C82.1492 62.5047 83.8876 62.6593 85.6131 62.9121C88.1474 63.3099 92.1683 65.7297 94.0041 70.2931C95.3769 73.6792 102.509 94.3365 102.509 94.3365L114.937 87.7917C118.121 85.7699 119.25 82.4163 121.281 80.4837C123.312 78.5512 125.343 78.2589 127.593 76.7079C129.843 75.157 130.728 73.9147 131.297 75.4656C131.865 77.0165 129.347 79.3957 128.86 79.9884C128.372 80.5812 125.927 81.8479 129.047 82.0103C132.166 82.1727 138.477 79.1358 139.988 78.6161C141.499 78.0965 141.369 79.891 140.581 81.0034C139.793 82.1159 139.712 85.3801 138.396 87.2071C136.999 89.1559 136.244 89.9923 133.246 91.1534C130.46 92.2253 124.685 92.5013 121.712 94.2147C118.739 95.928 111.542 102.432 106.741 105.769C100.299 110.252 96.6766 110.544 94.1503 106.971C91.6241 103.398 90.0157 98.4614 89.0491 96.2609Z" fill="#FFA8A7"/>
<path d="M78.7266 62.0827C82.9505 61.7579 87.9299 62.0177 90.6836 64.5187C92.8849 66.5243 93.7135 67.7667 96.1666 74.7011C97.7912 79.3539 101.268 90.0723 101.268 90.0723C96.4944 91.1488 92.2107 93.7723 89.0834 97.5346L81.1635 79.7437L78.7266 62.0827Z" fill="#CCE6FF"/>
<path d="M102.513 94.2947C100.373 95.0523 98.531 96.4751 97.2578 98.3547C97.2578 98.3547 97.5584 95.1067 102.132 93.166L102.513 94.2947Z" fill="#F28F8F"/>
<path d="M68.6089 61.3197C66.6082 61.2372 64.6065 61.4562 62.671 61.9693C58.9588 62.9518 52.3061 64.8194 52.3061 64.8194C50.1941 65.9156 49.3737 69.5696 48.8944 71.6727C47.3673 78.4041 51.3313 93.5967 51.9405 99.5162C52.5497 105.436 51.2338 123.568 51.2338 123.568C55.7746 128.829 80.3791 132.321 92.3605 123.568C92.3605 123.568 92.8803 81.9363 91.7025 75.96C89.9154 66.9143 87.2592 62.6189 77.8934 62.0748L68.6089 61.3197Z" fill="#FAFCFF"/>
<path d="M73.8649 38.9905L71.1925 40.4607C71.0076 40.0928 70.9693 39.6683 71.0855 39.2733C71.2016 38.8782 71.4634 38.5419 71.8179 38.3325C71.9946 38.2366 72.1888 38.1775 72.3889 38.1588C72.589 38.1401 72.7908 38.1622 72.9822 38.2237C73.1735 38.2852 73.3504 38.3848 73.5021 38.5166C73.6538 38.6484 73.7773 38.8096 73.8649 38.9905Z" fill="#0056AA"/>
<path d="M85.4896 40.0622L83.0527 38.1858C83.1672 38.0209 83.314 37.8812 83.4843 37.7749C83.6545 37.6687 83.8446 37.5982 84.043 37.5678C84.2413 37.5374 84.4438 37.5477 84.6381 37.5981C84.8323 37.6485 85.0142 37.7379 85.1728 37.8608C85.4957 38.1187 85.7081 38.4899 85.767 38.8988C85.8258 39.3077 85.7266 39.7237 85.4896 40.0622Z" fill="#0056AA"/>
<path d="M61.5871 30.4883C61.5871 30.4883 58.7116 30.8862 57.6556 33.0786C56.7458 34.9624 57.0707 39.5096 58.2973 44.4466C58.9904 47.6498 60.0253 50.7695 61.384 53.7521C61.864 54.5971 62.6484 55.2273 63.5772 55.5141L63.4229 49.619L63.2117 45.559C63.2117 45.559 65.8354 41.97 66.1278 39.063C66.5015 35.2791 65.7054 33.7282 65.7054 33.7282L61.5871 30.4883Z" fill="#0056AA"/>
<path d="M66.2208 36.1729C66.2315 39.0825 67.3964 41.8689 69.4598 43.921C71.5233 45.973 74.3168 47.123 77.2274 47.1187C83.2871 47.1187 87.836 42.1249 87.7873 36.0592C87.7385 29.9936 83.1897 25.1378 77.1218 25.1622C74.2176 25.1837 71.4401 26.3542 69.3971 28.4177C67.3542 30.4813 66.2121 33.2697 66.2208 36.1729Z" fill="#0056AA"/>
<path d="M63.4192 44.8693C62.4282 45.73 61.624 43.5133 60.7955 42.6444C59.9669 41.7756 57.2457 40.6063 55.9217 43.4564C54.5976 46.3065 57.1076 50.4396 59.1709 51.2354C59.7937 51.4711 60.4778 51.4904 61.1129 51.29C61.7481 51.0897 62.2972 50.6815 62.6719 50.1311V63.1231C65.7992 68.7583 71.3147 68.5797 74.2634 68.263C77.212 67.9463 77.8537 64.8851 75.7011 62.4166V58.3566C77.3395 58.6136 79.0008 58.6926 80.6562 58.5921C83.353 58.1699 84.7176 56.1561 85.5299 53.2085C86.8296 48.5071 87.3576 40.6144 85.5299 31.4957C82.5082 29.1571 72.0296 29.5469 65.6855 33.5663C66.181 41.7431 64.3615 44.0167 63.4192 44.8693Z" fill="#FFA8A7"/>
<path d="M86.0646 26.9803C86.4727 25.2876 86.6557 23.5485 86.6088 21.8079C86.6088 21.1258 86.4382 20.2976 85.7965 20.0377C85.1548 19.7779 84.5212 20.2488 83.9689 20.6224C81.6294 22.1976 78.7214 22.6442 75.9027 22.7985C71.029 23.0665 63.5802 22.7498 61.1027 28.0846C60.4122 29.5625 60.2904 31.1215 61.655 32.1446C62.8717 32.9594 64.263 33.4767 65.7165 33.655C68.1534 34.0853 70.5903 34.6212 73.0922 34.9542C75.5941 35.2871 78.5671 35.6119 81.0446 34.8486C83.1322 34.2071 85.2523 33.655 86.8038 31.9985C88.1485 30.5541 88.9072 28.661 88.932 26.688C88.932 26.4119 88.8751 26.0628 88.599 25.9897C88.461 25.9723 88.3211 26.0009 88.2009 26.0709L86.0646 26.9803Z" fill="#0056AA"/>
<path d="M75.6781 58.4462C75.6781 58.4462 69.6509 57.2525 67.5551 56.1401C66.3137 55.4972 65.2947 54.4956 64.6309 53.2656C64.9396 54.4943 65.492 55.6486 66.2555 56.6598C67.8069 58.6248 75.6619 60.0458 75.6619 60.0458L75.6781 58.4462Z" fill="#F28F8F"/>
<path d="M74.4644 42.9772C74.4564 43.2437 74.3701 43.5018 74.2163 43.7195C74.0625 43.9372 73.848 44.1047 73.5995 44.2012C73.351 44.2976 73.0796 44.3188 72.8192 44.2619C72.5588 44.2051 72.3209 44.0728 72.1352 43.8816C71.9496 43.6903 71.8243 43.4487 71.7752 43.1867C71.7261 42.9247 71.7552 42.6541 71.859 42.4085C71.9627 42.163 72.1365 41.9535 72.3586 41.8062C72.5807 41.6588 72.8413 41.5802 73.1079 41.5801C73.4727 41.5865 73.8202 41.737 74.0744 41.9988C74.3285 42.2606 74.4688 42.6124 74.4644 42.9772Z" fill="#0D0F10"/>
<path d="M76.4161 52.355C76.4226 52.6983 76.293 53.0303 76.0556 53.2784C75.8182 53.5265 75.4922 53.6705 75.1489 53.679C74.8035 53.6726 74.4746 53.5298 74.2341 53.2817C73.9936 53.0336 73.8611 52.7005 73.8655 52.355C73.8622 52.1854 73.8925 52.0168 73.9544 51.8588C74.0163 51.7009 74.1088 51.5567 74.2265 51.4345C74.3441 51.3123 74.4847 51.2145 74.6402 51.1466C74.7957 51.0788 74.963 51.0422 75.1327 51.0391C75.4767 51.0455 75.8043 51.1872 76.0446 51.4335C76.2848 51.6798 76.4183 52.0109 76.4161 52.355Z" fill="#B16668"/>
<path d="M72.7603 38.7147L69.966 40.4773C69.7354 40.0938 69.6625 39.6358 69.7625 39.1996C69.8624 38.7633 70.1275 38.3828 70.5021 38.1379C70.6874 38.0244 70.8936 37.9491 71.1085 37.9167C71.3233 37.8842 71.5425 37.8952 71.7531 37.949C71.9637 38.0027 72.1613 38.0982 72.3343 38.2297C72.5073 38.3613 72.6522 38.5262 72.7603 38.7147Z" fill="#0D0F10"/>
<path d="M82.6194 36.9922L85.5599 38.3081C85.4806 38.5011 85.363 38.6761 85.2141 38.8223C85.0653 38.9686 84.8883 39.0832 84.6939 39.1591C84.4996 39.235 84.2918 39.2707 84.0832 39.2641C83.8746 39.2574 83.6696 39.2086 83.4804 39.1204C83.0965 38.9379 82.7951 38.618 82.6356 38.2239C82.4762 37.8298 82.4704 37.3903 82.6194 36.9922Z" fill="#0D0F10"/>
<path d="M84.1752 42.5714C84.1657 42.8274 84.0811 43.075 83.9321 43.2834C83.7831 43.4918 83.5761 43.6518 83.3369 43.7436C83.0978 43.8354 82.8369 43.8549 82.5867 43.7997C82.3365 43.7445 82.108 43.6171 81.9296 43.4332C81.7513 43.2493 81.6308 43.0171 81.5833 42.7653C81.5357 42.5136 81.5632 42.2534 81.6622 42.0171C81.7612 41.7809 81.9275 41.5789 82.1403 41.4362C82.3531 41.2936 82.6031 41.2166 82.8593 41.2148C83.2134 41.2213 83.5505 41.3675 83.7971 41.6217C84.0436 41.8759 84.1796 42.2173 84.1752 42.5714Z" fill="#0D0F10"/>
<path d="M77.5254 40.2812L78.0128 49.3107L82.2936 48.1739L77.5254 40.2812Z" fill="#F28F8F"/>
<path d="M1.68551 77.47C3.09078 78.2251 8.81748 82.2526 11.9286 82.6018C13.2445 82.748 13.6019 82.5368 13.5532 82.1958C13.4882 81.7248 12.6515 81.0184 12.4485 80.6368C12.0992 79.9709 10.0116 77.2101 10.8239 75.7648C11.6362 74.3194 12.3429 75.6998 14.2761 77.5918C16.2094 79.4837 18.1914 80.1414 19.8891 82.342C21.5868 84.5425 22.1554 88.026 24.966 90.5513L36.1594 98.1922C36.1594 98.1922 41.3744 74.0027 43.665 71.1526C46.1019 68.1563 56.5562 74.6848 54.363 84.2096C52.1698 93.7343 47.1742 110.267 43.6975 113.507C41.4556 115.61 36.7361 113.628 30.847 108.391C26.1925 104.25 19.816 98.0379 17.1192 95.8374C14.4223 93.6369 8.81748 92.4514 6.2425 90.9654C3.47256 89.3414 2.86334 88.3914 1.79923 86.2396C0.800105 84.2177 1.24687 80.9778 0.653892 79.7436C0.0609144 78.5093 0.255866 76.7148 1.68551 77.47Z" fill="#FFA8A7"/>
<path d="M52.3078 64.8203C55.8982 67.0614 56.0769 70.3257 56.2556 74.0609C56.3064 78.4332 55.6143 82.7823 54.2086 86.923C52.6896 91.6244 50.2771 100.207 50.2771 100.207C50.2771 100.207 40.9032 100.427 36.0781 96.261C36.0781 96.261 38.2795 87.0042 39.8309 80.021C41.3824 73.0378 43.267 65.608 52.3078 64.8203Z" fill="#CCE6FF"/>
<path d="M36.1211 98.2092C38.6798 99.6302 40.1826 102.683 40.6456 103.893C40.5348 102.484 40.0912 101.122 39.3513 99.9179C38.6113 98.7138 37.5962 97.7024 36.3892 96.9668L36.1211 98.2092Z" fill="#F28F8F"/>
<path d="M133.373 273.707L196.066 309.89V323.223L133.373 287.04V273.707Z" fill="#0060BE"/>
<path opacity="0.35" d="M133.373 273.707L196.066 309.89V323.223L133.373 287.04V273.707Z" fill="black"/>
<path d="M258.756 273.707L196.062 309.89V323.223L258.756 287.04V273.707Z" fill="#0060BE"/>
<path opacity="0.2" d="M258.756 273.707L196.062 309.89V323.223L258.756 287.04V273.707Z" fill="black"/>
<path d="M258.759 273.708L196.066 237.533L133.373 273.708L196.066 309.891L258.759 273.708Z" fill="#0060BE"/>
<path opacity="0.15" d="M258.759 273.708L196.066 237.533L133.373 273.708L196.066 309.891L258.759 273.708Z" fill="black"/>
<path opacity="0.1" d="M196.066 309.89V306.081L139.969 273.707H133.373L196.066 309.89Z" fill="black"/>
<path opacity="0.1" d="M196.062 237.533V241.341L252.16 273.708H258.756L196.062 237.533Z" fill="black"/>
<path d="M258.756 273.707H252.16L196.062 306.081V309.89L258.756 273.707Z" fill="#0060BE"/>
<path d="M196.066 237.533V241.341L139.969 273.708H133.373L196.066 237.533Z" fill="#0060BE"/>
<path d="M196.294 258.004L223.23 273.546C225.245 274.715 225.245 276.599 223.23 277.76L203.142 289.388C202.01 289.966 200.758 290.268 199.487 290.268C198.216 290.268 196.963 289.966 195.831 289.388L168.896 273.846C166.881 272.677 166.881 270.793 168.896 269.632L188.992 258.004C190.123 257.428 191.374 257.127 192.643 257.127C193.912 257.127 195.164 257.428 196.294 258.004Z" fill="#004A92"/>
<path d="M203.143 289.387L222.565 278.173L196.295 263.013C195.161 262.442 193.909 262.145 192.64 262.145C191.37 262.145 190.118 262.442 188.985 263.013L169.562 274.243L195.832 289.387C196.964 289.965 198.217 290.266 199.488 290.266C200.758 290.266 202.011 289.965 203.143 289.387Z" fill="#0060BE"/>
<path d="M180.028 273.731L191.814 266.935C192.034 266.825 192.276 266.768 192.521 266.768C192.766 266.768 193.008 266.825 193.228 266.935L194.674 267.747C195.064 267.966 195.064 268.332 194.674 268.559L182.887 275.355C182.669 275.465 182.429 275.522 182.185 275.522C181.94 275.522 181.7 275.465 181.482 275.355L180.036 274.543C179.952 274.515 179.878 274.46 179.826 274.388C179.774 274.316 179.745 274.229 179.744 274.14C179.743 274.051 179.77 273.964 179.821 273.891C179.872 273.817 179.944 273.762 180.028 273.731Z" fill="#004A92"/>
<path d="M197.624 283.907L209.41 277.111C209.628 277.001 209.869 276.943 210.113 276.943C210.357 276.943 210.597 277.001 210.815 277.111L212.269 277.923C212.659 278.142 212.659 278.507 212.269 278.735L200.483 285.531C200.265 285.641 200.024 285.698 199.78 285.698C199.536 285.698 199.295 285.641 199.078 285.531L197.632 284.719C197.547 284.69 197.474 284.636 197.422 284.564C197.369 284.492 197.341 284.405 197.34 284.316C197.339 284.227 197.366 284.14 197.417 284.066C197.467 283.993 197.54 283.937 197.624 283.907Z" fill="#004A92"/>
<path d="M168.828 300.041C168.762 298.809 168.405 297.61 167.787 296.541C167.168 295.473 166.306 294.566 165.27 293.894C164.912 293.633 164.49 293.472 164.049 293.43C163.607 293.387 163.162 293.463 162.76 293.651L161.225 294.544C160.864 294.799 160.577 295.145 160.394 295.548C160.211 295.95 160.139 296.394 160.185 296.834C160.253 298.066 160.609 299.265 161.226 300.335C161.842 301.404 162.702 302.313 163.735 302.989C164.095 303.25 164.518 303.411 164.961 303.454C165.404 303.496 165.85 303.42 166.253 303.232L167.78 302.315C168.14 302.061 168.425 301.718 168.609 301.319C168.793 300.919 168.869 300.479 168.828 300.041Z" fill="#0060BE"/>
<path opacity="0.1" d="M163.737 294.811C164.773 295.483 165.635 296.39 166.254 297.458C166.872 298.526 167.229 299.725 167.295 300.958C167.295 303.223 165.671 304.141 163.737 303.012C162.704 302.336 161.845 301.427 161.228 300.358C160.611 299.289 160.255 298.09 160.188 296.857C160.188 294.6 161.78 293.682 163.737 294.811Z" fill="black"/>
<path d="M122.525 320.746C118.561 320.815 114.646 319.867 111.153 317.993L69.5633 293.99C66.2248 292.058 64.3809 289.395 64.3809 286.488C64.3809 283.581 66.2248 280.925 69.5633 278.993L117.749 251.182C123.029 248.137 127.496 240.415 127.496 234.317V81.8799C127.496 81.4491 127.668 81.0361 127.972 80.7315C128.277 80.427 128.69 80.2559 129.121 80.2559C129.552 80.2559 129.965 80.427 130.27 80.7315C130.574 81.0361 130.746 81.4491 130.746 81.8799V234.317C130.746 241.673 125.758 250.321 119.373 253.999L71.1879 281.811C68.8972 283.134 67.63 284.791 67.63 286.488C67.63 288.185 68.8972 289.849 71.1879 291.173L112.778 315.176C118.147 318.277 126.887 318.277 132.273 315.176L162.937 297.49C163.122 297.373 163.329 297.294 163.545 297.258C163.761 297.223 163.982 297.231 164.195 297.283C164.408 297.335 164.608 297.43 164.783 297.561C164.958 297.693 165.105 297.858 165.215 298.048C165.325 298.238 165.395 298.447 165.421 298.665C165.448 298.882 165.43 299.103 165.369 299.313C165.308 299.524 165.205 299.719 165.066 299.889C164.927 300.058 164.756 300.198 164.562 300.3L133.897 317.993C130.405 319.869 126.489 320.817 122.525 320.746Z" fill="#37474F"/>
<path d="M49.5453 23.5872C49.5212 23.4771 49.5204 23.3633 49.5427 23.2528C49.5651 23.1424 49.6102 23.0378 49.6752 22.9458C49.7365 22.8495 49.8173 22.7672 49.9125 22.7042C50.0076 22.6413 50.115 22.5991 50.2276 22.5804L54.1754 21.8171C54.2867 21.7919 54.4022 21.7904 54.5141 21.8128C54.6261 21.8352 54.7321 21.8809 54.8252 21.947C55.0139 22.0768 55.145 22.2748 55.1907 22.4992L55.8 25.666C55.8229 25.7766 55.8224 25.8908 55.7986 26.0013C55.7749 26.1117 55.7283 26.216 55.6619 26.3074C55.6024 26.4043 55.5232 26.4876 55.4294 26.552C55.3357 26.6163 55.2295 26.6603 55.1176 26.681L51.1618 27.4361C51.0516 27.4602 50.9377 27.461 50.8272 27.4387C50.7167 27.4163 50.6121 27.3712 50.52 27.3062C50.4237 27.245 50.3414 27.1642 50.2784 27.0691C50.2154 26.9739 50.1732 26.8666 50.1545 26.754L49.5453 23.5872ZM46.2474 6.48652C46.2249 6.37504 46.2248 6.26023 46.2471 6.14872C46.2693 6.03721 46.3134 5.9312 46.3768 5.83683C46.4403 5.74245 46.5218 5.66157 46.6167 5.59887C46.7116 5.53617 46.818 5.49289 46.9297 5.47152L50.8856 4.70824C50.9963 4.68535 51.1105 4.68581 51.221 4.70958C51.3315 4.73335 51.4358 4.77991 51.5273 4.84628C51.6227 4.9066 51.7045 4.98613 51.7674 5.0798C51.8303 5.17347 51.873 5.27923 51.8928 5.39032L54.484 18.9264C54.5069 19.037 54.5065 19.1512 54.4827 19.2617C54.4589 19.3721 54.4124 19.4764 54.346 19.5678C54.2856 19.6632 54.2061 19.7449 54.1124 19.8079C54.0186 19.8708 53.9129 19.9135 53.8017 19.9332L49.8458 20.6965C49.7351 20.7194 49.6209 20.719 49.5104 20.6952C49.3999 20.6714 49.2956 20.6249 49.2041 20.5585C49.1087 20.4982 49.0269 20.4186 48.964 20.325C48.9011 20.2313 48.8584 20.1255 48.8386 20.0144L46.2474 6.48652Z" fill="#0060BE"/>
<path d="M42.95 36.8385C42.8741 36.7544 42.8155 36.6561 42.7776 36.5492C42.7398 36.4424 42.7234 36.3292 42.7294 36.216C42.7355 36.1028 42.7638 35.992 42.8128 35.8898C42.8618 35.7876 42.9305 35.6961 43.015 35.6205L46.0124 32.9328C46.0961 32.8558 46.195 32.7972 46.3027 32.7608C46.4105 32.7245 46.5246 32.7111 46.6379 32.7217C46.7504 32.7241 46.8613 32.7499 46.9634 32.7974C47.0655 32.8449 47.1565 32.9132 47.2308 32.9977L49.3834 35.4337C49.4594 35.5179 49.518 35.6162 49.5558 35.723C49.5937 35.8298 49.6101 35.9431 49.604 36.0562C49.598 36.1694 49.5696 36.2803 49.5206 36.3825C49.4716 36.4846 49.4029 36.5762 49.3184 36.6517L46.3617 39.307C46.278 39.384 46.1791 39.4426 46.0714 39.4789C45.9636 39.5153 45.8494 39.5286 45.7362 39.5181C45.6236 39.5157 45.5128 39.4899 45.4107 39.4424C45.3086 39.3948 45.2175 39.3266 45.1432 39.242L42.95 36.8385ZM31.3261 23.8465C31.1732 23.6752 31.0944 23.4505 31.1067 23.2213C31.1102 23.1081 31.1372 22.9969 31.1862 22.8948C31.2352 22.7928 31.3049 22.702 31.391 22.6285L34.3884 19.9408C34.4714 19.8623 34.57 19.8023 34.6778 19.7645C34.7855 19.7267 34.9001 19.7121 35.0139 19.7215C35.1271 19.725 35.2383 19.752 35.3404 19.801C35.4425 19.8499 35.5333 19.9197 35.6069 20.0057L44.8021 30.2857C44.8791 30.3693 44.9377 30.4682 44.9741 30.5759C45.0105 30.6836 45.0238 30.7977 45.0133 30.9109C45.0108 31.0234 44.985 31.1343 44.9375 31.2363C44.89 31.3383 44.8217 31.4294 44.7371 31.5037L41.7316 34.1914C41.6489 34.2673 41.5513 34.3253 41.445 34.3616C41.3388 34.398 41.2262 34.4119 41.1142 34.4025C41.0003 34.4012 40.8879 34.376 40.7843 34.3284C40.6807 34.2808 40.5884 34.212 40.5131 34.1264L31.3261 23.8465Z" fill="#0060BE"/>
<g opacity="0.6">
<path opacity="0.6" d="M42.95 36.8385C42.8741 36.7544 42.8155 36.6561 42.7776 36.5492C42.7398 36.4424 42.7234 36.3292 42.7294 36.216C42.7355 36.1028 42.7638 35.992 42.8128 35.8898C42.8618 35.7876 42.9305 35.6961 43.015 35.6205L46.0124 32.9328C46.0961 32.8558 46.195 32.7972 46.3027 32.7608C46.4105 32.7245 46.5246 32.7111 46.6379 32.7217C46.7504 32.7241 46.8613 32.7499 46.9634 32.7974C47.0655 32.8449 47.1565 32.9132 47.2308 32.9977L49.3834 35.4337C49.4594 35.5179 49.518 35.6162 49.5558 35.723C49.5937 35.8298 49.6101 35.9431 49.604 36.0562C49.598 36.1694 49.5696 36.2803 49.5206 36.3825C49.4716 36.4846 49.4029 36.5762 49.3184 36.6517L46.3617 39.307C46.278 39.384 46.1791 39.4426 46.0714 39.4789C45.9636 39.5153 45.8494 39.5286 45.7362 39.5181C45.6236 39.5157 45.5128 39.4899 45.4107 39.4424C45.3086 39.3948 45.2175 39.3266 45.1432 39.242L42.95 36.8385ZM31.3261 23.8465C31.1732 23.6752 31.0944 23.4505 31.1067 23.2213C31.1102 23.1081 31.1372 22.9969 31.1862 22.8948C31.2352 22.7928 31.3049 22.702 31.391 22.6285L34.3884 19.9408C34.4714 19.8623 34.57 19.8023 34.6778 19.7645C34.7855 19.7267 34.9001 19.7121 35.0139 19.7215C35.1271 19.725 35.2383 19.752 35.3404 19.801C35.4425 19.8499 35.5333 19.9197 35.6069 20.0057L44.8021 30.2857C44.8791 30.3693 44.9377 30.4682 44.9741 30.5759C45.0105 30.6836 45.0238 30.7977 45.0133 30.9109C45.0108 31.0234 44.985 31.1343 44.9375 31.2363C44.89 31.3383 44.8217 31.4294 44.7371 31.5037L41.7316 34.1914C41.6489 34.2673 41.5513 34.3253 41.445 34.3616C41.3388 34.398 41.2262 34.4119 41.1142 34.4025C41.0003 34.4012 40.8879 34.376 40.7843 34.3284C40.6807 34.2808 40.5884 34.212 40.5131 34.1264L31.3261 23.8465Z" fill="white"/>
</g>
</svg>
